<mxfile host="app.diagrams.net" modified="2024-03-19T04:35:14.285Z" agent="Mozilla/5.0" version="22.1.21">
    <diagram id="sequence-diagram" name="Sequence Diagram">
        <mxGraphModel dx="0" dy="0" grid="1" gridSize="10" guides="1" tooltips="1" connect="1" arrows="1" fold="1" page="1" pageScale="1" pageWidth="850" pageHeight="1100" math="0" shadow="0">
            <root>
                <mxCell id="0"/>
                <mxCell id="1" parent="0"/>
                <mxCell id="frame" value="sd Đăng nhập" style="shape=umlFrame;whiteSpace=wrap;html=1;width=160;height=30;" vertex="1" parent="1">
                    <mxGeometry x="20" y="10" width="810" height="620" as="geometry"/>
                </mxCell>
                <mxCell id="user" value="Người dùng" style="shape=umlActor;verticalLabelPosition=bottom;verticalAlign=top;html=1;" vertex="1" parent="1">
                    <mxGeometry x="50" y="40" width="30" height="60" as="geometry"/>
                </mxCell>
                <mxCell id="loginPage" value="Trang đăng nhập" style="rounded=0;whiteSpace=wrap;html=1;" vertex="1" parent="1">
                    <mxGeometry x="250" y="50" width="100" height="40" as="geometry"/>
                </mxCell>
                <mxCell id="authService" value="Authentication&#xa;Service" style="rounded=0;whiteSpace=wrap;html=1;" vertex="1" parent="1">
                    <mxGeometry x="450" y="50" width="100" height="40" as="geometry"/>
                </mxCell>
                <mxCell id="database" value="Database" style="rounded=0;whiteSpace=wrap;html=1;" vertex="1" parent="1">
                    <mxGeometry x="650" y="50" width="100" height="40" as="geometry"/>
                </mxCell>
                <mxCell id="userLine" value="" style="endArrow=none;dashed=1;html=1;startArrow=none;" edge="1" parent="1" source="user">
                    <mxGeometry width="50" height="50" relative="1" as="geometry">
                        <mxPoint x="65" y="600" as="sourcePoint"/>
                        <mxPoint x="65" y="120" as="targetPoint"/>
                    </mxGeometry>
                </mxCell>
                <mxCell id="loginPageLine" value="" style="endArrow=none;dashed=1;html=1;" edge="1" parent="1">
                    <mxGeometry width="50" height="50" relative="1" as="geometry">
                        <mxPoint x="300" y="600" as="sourcePoint"/>
                        <mxPoint x="300" y="90" as="targetPoint"/>
                    </mxGeometry>
                </mxCell>
                <mxCell id="authServiceLine" value="" style="endArrow=none;dashed=1;html=1;" edge="1" parent="1">
                    <mxGeometry width="50" height="50" relative="1" as="geometry">
                        <mxPoint x="500" y="600" as="sourcePoint"/>
                        <mxPoint x="500" y="90" as="targetPoint"/>
                    </mxGeometry>
                </mxCell>
                <mxCell id="databaseLine" value="" style="endArrow=none;dashed=1;html=1;" edge="1" parent="1">
                    <mxGeometry width="50" height="50" relative="1" as="geometry">
                        <mxPoint x="700" y="600" as="sourcePoint"/>
                        <mxPoint x="700" y="90" as="targetPoint"/>
                    </mxGeometry>
                </mxCell>
                <mxCell id="loginPageActivation1" value="" style="html=1;points=[];perimeter=orthogonalPerimeter;fillColor=#f5f5f5;strokeColor=#666666;" vertex="1" parent="1">
                    <mxGeometry x="295" y="140" width="10" height="420" as="geometry"/>
                </mxCell>
                <mxCell id="authServiceActivation" value="" style="html=1;points=[];perimeter=orthogonalPerimeter;fillColor=#f5f5f5;strokeColor=#666666;" vertex="1" parent="1">
                    <mxGeometry x="495" y="260" width="10" height="200" as="geometry"/>
                </mxCell>
                <mxCell id="databaseActivation" value="" style="html=1;points=[];perimeter=orthogonalPerimeter;fillColor=#f5f5f5;strokeColor=#666666;" vertex="1" parent="1">
                    <mxGeometry x="695" y="300" width="10" height="60" as="geometry"/>
                </mxCell>
                <mxCell id="msg1" value="1. Truy cập trang đăng nhập" style="endArrow=classic;html=1;" edge="1" parent="1">
                    <mxGeometry relative="1" as="geometry">
                        <mxPoint x="65" y="140" as="sourcePoint"/>
                        <mxPoint x="295" y="140" as="targetPoint"/>
                    </mxGeometry>
                </mxCell>
                <mxCell id="msg2" value="2. Hiển thị form đăng nhập" style="endArrow=classic;html=1;" edge="1" parent="1">
                    <mxGeometry relative="1" as="geometry">
                        <mxPoint x="295" y="180" as="sourcePoint"/>
                        <mxPoint x="65" y="180" as="targetPoint"/>
                    </mxGeometry>
                </mxCell>
                <mxCell id="msg3" value="3. Nhập thông tin đăng nhập" style="endArrow=classic;html=1;" edge="1" parent="1">
                    <mxGeometry relative="1" as="geometry">
                        <mxPoint x="65" y="220" as="sourcePoint"/>
                        <mxPoint x="295" y="220" as="targetPoint"/>
                    </mxGeometry>
                </mxCell>
                <mxCell id="msg4" value="4. Gửi yêu cầu xác thực" style="endArrow=classic;html=1;" edge="1" parent="1">
                    <mxGeometry relative="1" as="geometry">
                        <mxPoint x="305" y="260" as="sourcePoint"/>
                        <mxPoint x="495" y="260" as="targetPoint"/>
                    </mxGeometry>
                </mxCell>
                <mxCell id="msg5" value="5. Kiểm tra thông tin" style="endArrow=classic;html=1;" edge="1" parent="1">
                    <mxGeometry relative="1" as="geometry">
                        <mxPoint x="505" y="300" as="sourcePoint"/>
                        <mxPoint x="695" y="300" as="targetPoint"/>
                    </mxGeometry>
                </mxCell>
                <mxCell id="msg6" value="6. Trả về kết quả" style="endArrow=classic;html=1;dashed=1;" edge="1" parent="1">
                    <mxGeometry relative="1" as="geometry">
                        <mxPoint x="695" y="360" as="sourcePoint"/>
                        <mxPoint x="505" y="360" as="targetPoint"/>
                    </mxGeometry>
                </mxCell>
                <mxCell id="alt" value="alt" style="shape=umlFrame;whiteSpace=wrap;html=1;" vertex="1" parent="1">
                    <mxGeometry x="200" y="380" width="580" height="160" as="geometry"/>
                </mxCell>
                <mxCell id="condition" value="[Đăng nhập thành công]" style="text;html=1;" vertex="1" parent="1">
                    <mxGeometry x="240" y="380" width="140" height="20" as="geometry"/>
                </mxCell>
                <mxCell id="msg7success" value="7a. Tạo token và chuyển hướng" style="endArrow=classic;html=1;" edge="1" parent="1">
                    <mxGeometry relative="1" as="geometry">
                        <mxPoint x="495" y="420" as="sourcePoint"/>
                        <mxPoint x="305" y="420" as="targetPoint"/>
                    </mxGeometry>
                </mxCell>
                <mxCell id="msg8success" value="8a. Chuyển hướng đến trang chủ" style="endArrow=classic;html=1;" edge="1" parent="1">
                    <mxGeometry relative="1" as="geometry">
                        <mxPoint x="295" y="460" as="sourcePoint"/>
                        <mxPoint x="65" y="460" as="targetPoint"/>
                    </mxGeometry>
                </mxCell>
                <mxCell id="sepLine" value="" style="endArrow=none;dashed=1;html=1;" edge="1" parent="1">
                    <mxGeometry width="50" height="50" relative="1" as="geometry">
                        <mxPoint x="200" y="480" as="sourcePoint"/>
                        <mxPoint x="780" y="480" as="targetPoint"/>
                    </mxGeometry>
                </mxCell>
                <mxCell id="elseCondition" value="[Đăng nhập thất bại]" style="text;html=1;" vertex="1" parent="1">
                    <mxGeometry x="240" y="480" width="140" height="20" as="geometry"/>
                </mxCell>
                <mxCell id="msg7error" value="7b. Thông báo lỗi" style="endArrow=classic;html=1;" edge="1" parent="1">
                    <mxGeometry relative="1" as="geometry">
                        <mxPoint x="495" y="520" as="sourcePoint"/>
                        <mxPoint x="305" y="520" as="targetPoint"/>
                    </mxGeometry>
                </mxCell>
                <mxCell id="msg8error" value="8b. Hiển thị thông báo lỗi" style="endArrow=classic;html=1;" edge="1" parent="1">
                    <mxGeometry relative="1" as="geometry">
                        <mxPoint x="295" y="540" as="sourcePoint"/>
                        <mxPoint x="65" y="540" as="targetPoint"/>
                    </mxGeometry>
                </mxCell>
            </root>
        </mxGraphModel>
    </diagram>
</mxfile>
